<!DOCTYPE svg PUBLIC "-//W3C//DTD SVG 20010904//EN" "http://www.w3.org/TR/2001/REC-SVG-20010904/DTD/svg10.dtd">
<svg version="1.0" xmlns="http://www.w3.org/2000/svg" width="1114px" height="796px" viewBox="0 0 11140 7960" preserveAspectRatio="xMidYMid meet">
<g id="layer1" fill="#f69320" stroke="none">
 <path d="M1120 7915 c0 -43 -1 -44 -35 -51 -34 -6 -35 -7 -35 -55 0 -35 -4 -49 -14 -49 -11 0 -15 -27 -18 -132 -4 -147 -2 -168 18 -168 10 0 14 -15 14 -55 l0 -55 35 0 c35 0 35 0 35 -45 l0 -45 125 0 125 0 0 43 c0 40 2 44 33 52 34 11 44 35 33 81 -6 22 -12 24 -61 24 l-55 0 0 -45 0 -45 -78 0 -78 0 4 37 c3 27 0 40 -13 49 -15 11 -17 31 -18 148 0 115 2 137 17 152 14 13 17 28 13 56 l-5 38 79 0 79 0 0 -95 0 -95 -35 0 -35 0 0 -50 0 -50 89 0 c77 0 90 2 94 18 3 9 4 75 3 147 l-1 130 -30 5 c-28 5 -30 9 -33 53 l-3 47 -125 0 -124 0 0 -45z"/>
 <path d="M1520 7905 l0 -55 33 0 32 0 -1 -103 c-2 -188 0 -177 -34 -177 -30 0 -30 -1 -30 -55 l0 -55 70 0 70 0 0 45 c0 33 4 45 15 45 11 0 15 -12 15 -45 l0 -45 105 0 105 0 0 45 c0 32 4 45 14 45 16 0 26 21 26 55 0 48 -9 55 -66 55 l-54 0 0 -45 0 -45 -45 0 -45 0 0 44 c0 30 -5 46 -15 50 -12 4 -15 25 -15 95 l0 89 35 6 c34 7 35 8 35 56 l0 50 -125 0 -125 0 0 -55z"/>
 <path d="M2130 7916 c0 -45 -10 -56 -51 -56 -16 0 -19 -7 -19 -49 0 -40 -3 -50 -20 -54 -15 -4 -20 -14 -20 -40 0 -45 9 -67 26 -67 10 0 14 -13 14 -45 0 -45 0 -45 35 -45 l35 0 0 -50 0 -50 104 0 105 0 3 47 c3 44 5 48 33 53 28 5 30 8 29 48 -1 34 3 42 18 42 15 0 18 8 18 55 0 46 -3 55 -17 55 -15 0 -18 9 -18 47 0 45 -2 48 -30 53 -28 5 -30 9 -33 53 l-3 47 -105 0 -104 0 0 -44z m160 -111 c0 -34 4 -47 18 -53 12 -5 17 -18 17 -50 0 -33 -4 -42 -17 -42 -15 0 -18 -9 -18 -45 l0 -45 -55 0 c-54 0 -55 0 -55 29 0 38 -9 61 -24 61 -7 0 -11 17 -11 45 0 29 4 45 12 45 16 0 27 43 19 75 -6 25 -5 25 54 25 l60 0 0 -45z"/>
 <path d="M2590 7914 c0 -37 -4 -47 -20 -51 -18 -5 -20 -14 -20 -99 0 -75 -3 -96 -15 -100 -12 -5 -15 -26 -15 -105 l0 -99 55 0 c45 0 55 3 56 18 1 9 2 75 3 146 0 77 5 131 11 133 6 2 9 -15 7 -43 -4 -39 -1 -46 17 -51 20 -5 21 -12 21 -104 l0 -99 40 0 c45 0 43 -5 40 117 -1 59 1 73 16 81 14 8 18 21 17 51 -1 22 2 43 8 46 5 4 9 -52 9 -144 l0 -151 54 0 c64 0 63 -1 64 112 1 67 -2 79 -19 88 -17 9 -19 22 -19 104 0 74 -3 95 -15 100 -10 4 -15 20 -15 51 l0 45 -40 0 -40 0 0 -45 c0 -31 -5 -47 -15 -51 -10 -4 -15 -20 -15 -50 0 -44 0 -44 -35 -44 -35 0 -35 0 -35 44 0 25 -4 48 -10 51 -5 3 -10 26 -10 51 l0 44 -40 0 -40 0 0 -46z"/>
 <path d="M3180 7915 c0 -31 -5 -47 -15 -51 -12 -5 -15 -31 -15 -150 l0 -144 -50 0 -50 0 0 -55 0 -55 50 0 50 0 0 -100 0 -100 55 0 c60 0 57 -3 60 75 0 22 2 59 3 83 l2 42 60 0 60 0 0 55 0 55 -62 0 -63 0 1 103 c3 191 0 177 33 177 16 0 43 3 60 6 30 6 31 9 31 55 l0 49 -105 0 -105 0 0 -45z"/>
 <path d="M3520 7610 l0 -350 54 0 c65 0 66 1 62 120 -1 47 1 108 4 135 l7 50 2 -52 1 -53 104 0 105 0 3 48 c3 45 4 47 35 50 20 2 34 10 36 20 3 9 4 98 3 197 l-1 180 -57 3 -58 3 0 -196 0 -195 -80 0 -80 0 0 45 c0 29 -4 45 -12 45 -10 0 -13 36 -13 147 l0 148 -57 3 -58 3 0 -351z"/>
 <path d="M4590 7911 c0 -40 -3 -50 -20 -54 -15 -4 -20 -14 -20 -40 0 -45 9 -67 26 -67 10 0 14 -13 14 -45 l0 -45 100 0 100 0 0 -45 0 -45 -85 0 -85 0 0 -55 0 -55 105 0 105 0 0 44 c0 45 10 56 51 56 23 0 22 -11 24 149 2 98 6 135 15 141 8 5 14 28 14 57 l1 48 -57 3 -58 3 0 -51 c0 -27 -4 -50 -10 -50 -5 0 -10 23 -10 50 l0 50 -105 0 -105 0 0 -49z m200 -106 l0 -45 -60 0 -60 0 0 45 0 45 60 0 60 0 0 -45z"/>
 <path d="M5020 7710 l0 -251 58 3 57 3 0 42 c0 23 3 45 8 49 4 4 7 -16 7 -44 l0 -52 104 0 105 0 3 48 c3 45 4 47 35 50 20 2 34 10 36 20 3 9 4 98 3 197 l-1 180 -57 3 -58 3 0 -196 0 -195 -80 0 -80 0 0 43 c0 24 -5 48 -11 54 -8 8 -12 61 -13 150 l-1 138 -57 3 -58 3 0 -251z"/>
 <path d="M5630 7916 c0 -45 -10 -56 -51 -56 -16 0 -19 -7 -19 -45 0 -34 -5 -47 -20 -55 -15 -8 -20 -21 -20 -51 0 -32 4 -42 20 -46 17 -4 20 -14 20 -54 l0 -49 35 0 35 0 0 -50 0 -50 90 0 90 0 0 50 c0 28 3 50 8 50 4 0 7 -66 7 -147 l0 -148 56 -3 c48 -2 57 0 60 15 2 10 3 168 1 351 l-3 332 -54 0 c-50 0 -55 -2 -61 -25 -3 -14 -4 -34 -1 -45 3 -11 1 -23 -4 -26 -5 -3 -9 18 -9 45 l0 51 -90 0 -90 0 0 -44z m163 -86 c-7 -28 5 -70 20 -70 20 0 13 -88 -8 -104 -13 -9 -16 -22 -13 -49 l4 -37 -58 0 -58 0 0 40 c0 25 -6 42 -16 48 -11 6 -17 25 -18 55 -1 39 1 47 16 47 15 0 18 8 18 45 l0 45 59 0 c54 0 59 -2 54 -20z"/>
 <path d="M6630 7915 c0 -45 0 -45 -35 -45 l-35 0 0 -54 c0 -45 -3 -54 -20 -59 -16 -4 -20 -14 -20 -47 0 -33 4 -43 20 -47 17 -5 20 -14 20 -59 l0 -54 35 0 c35 0 35 0 35 -45 l0 -45 120 0 120 0 0 45 c0 38 3 45 19 45 42 0 51 10 51 61 l0 49 -54 0 c-58 0 -66 -7 -66 -61 l0 -29 -70 0 -70 0 0 40 c0 26 -6 42 -17 48 -23 14 -22 88 2 106 14 10 17 21 12 50 l-6 36 77 0 77 0 0 -42 0 -43 58 -3 57 -3 0 49 c0 52 -9 62 -51 62 -16 0 -19 7 -19 45 l0 45 -120 0 -120 0 0 -45z"/>
 <path d="M7130 7916 c0 -45 -10 -56 -51 -56 -16 0 -19 -7 -19 -49 0 -40 -3 -50 -20 -54 -15 -4 -20 -14 -20 -40 0 -45 9 -67 26 -67 10 0 14 -13 14 -45 0 -45 0 -45 35 -45 l35 0 0 -50 0 -50 104 0 105 0 3 47 c3 44 5 48 33 53 28 5 30 8 29 48 -1 34 3 42 18 42 15 0 18 8 18 55 0 46 -3 55 -17 55 -15 0 -18 9 -18 47 0 45 -2 48 -30 53 -28 5 -30 9 -33 53 l-3 47 -105 0 -104 0 0 -44z m160 -111 c0 -34 4 -47 18 -53 12 -5 17 -18 17 -50 0 -33 -4 -42 -17 -42 -15 0 -18 -9 -18 -45 l0 -45 -55 0 c-54 0 -55 0 -55 29 0 38 -9 61 -24 61 -7 0 -11 17 -11 45 0 29 4 45 12 45 16 0 27 43 19 75 -6 25 -5 25 54 25 l60 0 0 -45z"/>
 <path d="M7520 7710 l0 -251 58 3 57 3 0 42 c0 23 3 45 8 49 4 4 7 -16 7 -44 l0 -52 104 0 105 0 3 48 c3 45 4 47 35 50 20 2 34 10 36 20 3 9 4 98 3 197 l-1 180 -57 3 -58 3 0 -196 0 -195 -80 0 -80 0 0 43 c0 24 -5 48 -11 54 -8 8 -12 61 -13 150 l-1 138 -57 3 -58 3 0 -251z"/>
 <path d="M8180 7915 c0 -31 -5 -47 -15 -51 -12 -5 -15 -31 -15 -150 l0 -144 -50 0 -50 0 0 -55 0 -55 50 0 50 0 0 -100 0 -100 55 0 c60 0 57 -3 60 75 0 22 2 59 3 83 l2 42 60 0 60 0 0 55 0 55 -62 0 -63 0 1 103 c3 191 0 177 33 177 16 0 43 3 60 6 30 6 31 9 31 55 l0 49 -105 0 -105 0 0 -45z"/>
 <path d="M8520 7905 l0 -55 33 0 32 0 -1 -103 c-2 -188 0 -177 -34 -177 -30 0 -30 -1 -30 -55 l0 -55 70 0 70 0 0 45 c0 33 4 45 15 45 11 0 15 -12 15 -45 l0 -45 105 0 105 0 0 45 c0 32 4 45 14 45 16 0 26 21 26 55 0 48 -9 55 -66 55 l-54 0 0 -45 0 -45 -45 0 -45 0 0 44 c0 30 -5 46 -15 50 -12 4 -15 25 -15 95 l0 89 35 6 c34 7 35 8 35 56 l0 50 -125 0 -125 0 0 -55z"/>
 <path d="M9130 7916 c0 -45 -10 -56 -51 -56 -16 0 -19 -7 -19 -49 0 -40 -3 -50 -20 -54 -15 -4 -20 -14 -20 -40 0 -45 9 -67 26 -67 10 0 14 -13 14 -45 0 -45 0 -45 35 -45 l35 0 0 -50 0 -50 104 0 105 0 3 47 c3 44 5 48 33 53 28 5 30 8 29 48 -1 34 3 42 18 42 15 0 18 8 18 55 0 46 -3 55 -17 55 -15 0 -18 9 -18 47 0 45 -2 48 -30 53 -28 5 -30 9 -33 53 l-3 47 -105 0 -104 0 0 -44z m160 -111 c0 -34 4 -47 18 -53 12 -5 17 -18 17 -50 0 -33 -4 -42 -17 -42 -15 0 -18 -9 -18 -45 l0 -45 -55 0 c-54 0 -55 0 -55 29 0 38 -9 61 -24 61 -7 0 -11 17 -11 45 0 29 4 45 12 45 16 0 27 43 19 75 -6 25 -5 25 54 25 l60 0 0 -45z"/>
 <path d="M9590 7905 l0 -55 50 0 50 0 0 -239 0 -240 -32 -3 c-32 -3 -33 -4 -36 -55 l-3 -53 90 0 c65 0 91 4 93 13 0 6 2 122 4 257 3 353 0 320 28 320 14 0 37 4 51 10 23 9 26 14 23 52 l-3 43 -157 3 -158 3 0 -56z"/>
 <path d="M6836 3483 c-175 -166 -296 -288 -296 -298 0 -5 28 -44 61 -85 170 -208 286 -440 345 -695 28 -119 25 -500 -5 -631 -67 -294 -199 -533 -416 -750 -221 -222 -478 -358 -790 -420 -128 -26 -404 -26 -540 0 -446 83 -818 344 -1050 737 -143 242 -204 499 -192 813 13 335 107 605 299 860 78 104 80 108 67 134 -17 33 -325 344 -357 361 -21 11 -27 9 -59 -25 -51 -54 -172 -217 -226 -304 -110 -179 -222 -461 -251 -635 -53 -314 -47 -703 15 -969 97 -415 357 -822 706 -1107 228 -187 538 -342 793 -397 347 -75 816 -66 1105 21 335 102 607 264 868 517 426 412 617 879 617 1508 0 346 -72 669 -207 922 -118 221 -341 520 -388 520 -9 0 -54 -35 -99 -77z"/>
 </g>
<g id="layer2" fill="#6b7987" stroke="none">
 <path d="M0 6715 l0 -105 105 0 105 0 0 -520 0 -520 -70 0 -70 0 0 -105 0 -105 184 0 184 0 5 53 c2 28 4 307 3 619 l-1 568 102 0 101 0 7 60 c4 33 4 82 0 110 l-7 50 -324 0 -324 0 0 -105z"/>
 <path d="M1040 6720 l0 -100 103 0 103 0 -1 -312 0 -313 -66 -3 -66 -3 -6 -58 c-2 -32 -3 -79 0 -105 l6 -46 183 0 184 0 0 48 c1 26 1 212 0 415 l-1 367 106 0 106 0 -3 103 -3 102 -322 3 -323 2 0 -100z"/>
 <path d="M2088 6775 c-2 -25 -1 -71 2 -103 5 -56 6 -57 38 -60 l32 -3 0 -100 c1 -54 1 -148 1 -209 0 -60 0 -155 -1 -210 l0 -99 -67 -3 -68 -3 -3 -102 -3 -103 70 0 70 0 0 -95 c0 -53 3 -100 6 -105 3 -6 19 -10 36 -10 l29 0 0 -105 0 -105 255 0 256 0 -3 103 -3 102 -170 3 -170 2 0 105 0 105 173 0 173 0 -3 103 -3 102 -170 3 -170 2 0 310 0 310 66 0 66 0 6 35 c3 20 3 67 0 105 l-6 70 -217 0 -218 0 -4 -45z"/>
 <path d="M3210 6721 l0 -100 -67 -3 -68 -3 -3 -107 -3 -107 -32 -3 -32 -3 0 -100 0 -100 32 -3 32 -3 3 -102 3 -102 68 -3 67 -3 0 -99 0 -100 256 0 255 0 -3 100 -3 99 70 3 70 3 2 208 3 207 -278 0 -277 0 0 105 0 105 243 0 243 0 -3 103 -3 102 -287 3 -288 2 0 -99z m415 -631 l0 -100 -160 0 -160 0 0 100 0 100 160 0 160 0 0 -100z"/>
 <path d="M4230 6715 l0 -105 68 0 67 0 0 -520 0 -520 -67 0 -68 0 0 -105 0 -105 255 0 255 0 0 105 0 105 -70 0 -70 0 0 520 0 520 70 0 71 0 -3 103 -3 102 -252 3 -253 2 0 -105z"/>
 <path d="M5070 6300 l0 -520 115 0 115 0 6 26 c4 14 3 57 -1 96 -5 54 -3 73 7 79 34 22 38 11 38 -96 l0 -105 220 0 220 0 0 99 c0 112 -1 111 91 111 47 0 47 0 50 38 2 20 3 207 1 415 l-3 377 -114 0 -113 0 -5 -42 c-3 -24 -4 -211 -3 -415 l1 -373 -162 0 -162 0 -3 103 -3 102 -30 3 -31 3 3 282 c1 155 -1 294 -3 310 l-6 27 -114 0 -114 0 0 -520z"/>
 <path d="M6455 6765 c-4 -30 -4 -75 -1 -99 l7 -45 -33 -3 -33 -3 -3 -100 c-3 -104 -8 -115 -49 -115 -22 0 -23 -3 -23 -99 l0 -100 -32 -3 -33 -3 -3 -102 -3 -102 -32 -3 -32 -3 -3 -102 -3 -103 115 0 116 0 6 26 c4 14 4 59 0 100 l-7 74 35 0 c30 0 35 4 41 31 4 17 4 65 0 105 l-7 74 36 0 c32 0 36 3 42 36 3 19 3 63 0 96 -7 62 -1 77 32 78 11 0 12 -11 7 -49 -4 -27 -4 -74 0 -105 7 -55 8 -56 41 -56 l33 0 -5 -62 c-3 -35 -2 -81 3 -103 8 -36 12 -40 41 -43 l32 -3 -6 -64 c-4 -35 -4 -79 0 -99 l7 -36 114 0 115 0 0 89 c0 110 -4 121 -42 121 -30 0 -30 0 -27 53 1 28 1 76 1 105 l-2 52 -35 0 -35 0 0 100 c0 92 -2 100 -19 100 -48 0 -51 7 -51 110 0 103 -3 110 -51 110 -17 0 -19 8 -19 100 l0 100 -114 0 -115 0 -6 -55z"/>
 <path d="M7290 6721 l0 -100 -32 -3 -33 -3 0 -105 0 -105 33 -3 32 -3 0 -100 0 -99 208 0 208 0 0 -105 -1 -105 -172 0 -173 0 0 -105 0 -105 220 0 220 0 0 99 c0 112 -1 111 93 111 l47 0 1 48 c0 26 0 165 -1 310 l-2 262 36 0 36 0 0 105 0 105 -114 0 -115 0 -6 -55 c-4 -30 -4 -75 -1 -100 7 -43 6 -45 -18 -45 l-26 0 0 100 0 100 -220 0 -220 0 0 -99z m415 -211 l0 -100 -125 0 -125 0 0 100 0 100 125 0 125 0 0 -100z"/>
 <path d="M8410 6720 l0 -99 -67 -3 -68 -3 -3 -102 -3 -102 -32 -3 -32 -3 -3 -99 c-3 -105 1 -116 46 -116 21 0 22 -3 22 -100 l0 -100 70 0 70 0 0 -105 0 -105 186 0 185 0 -3 105 -3 105 26 0 25 0 -2 -282 c-1 -156 0 -298 3 -315 l5 -33 113 0 113 0 3 38 c2 20 3 349 1 730 l-3 692 -114 0 -114 0 -6 -55 c-4 -30 -4 -75 -1 -100 7 -43 6 -45 -18 -45 l-26 0 0 100 0 100 -185 0 -185 0 0 -100z m343 -169 c-3 -32 -2 -80 1 -105 7 -44 9 -46 39 -46 l32 0 0 -100 0 -100 -32 0 c-30 0 -32 -2 -39 -46 -3 -26 -4 -73 0 -105 l6 -59 -130 0 -131 0 7 49 c3 28 3 75 -1 105 -6 55 -7 56 -38 56 l-32 0 0 100 0 100 32 0 c31 0 31 0 38 64 4 35 4 82 0 105 l-7 41 130 0 130 0 -5 -59z"/>
 <path d="M9450 6721 l0 -100 -67 -3 -68 -3 -3 -107 -3 -107 -32 -3 -32 -3 0 -100 0 -100 32 -3 32 -3 3 -102 3 -102 68 -3 67 -3 0 -99 0 -100 256 0 255 0 -3 100 -3 99 70 3 70 3 2 208 3 207 -278 0 -277 0 0 105 0 105 243 0 243 0 -3 103 -3 102 -287 3 -288 2 0 -99z m415 -631 l0 -100 -160 0 -160 0 0 100 0 100 160 0 160 0 0 -100z"/>
 <path d="M10270 6715 l0 -105 68 0 68 0 -1 -307 -1 -308 -67 -3 -67 -3 0 -104 0 -105 150 0 150 0 0 99 c0 99 4 111 41 111 5 0 9 -47 9 -105 l0 -105 220 0 220 0 0 99 c0 104 3 111 51 111 18 0 20 6 17 98 l-3 97 -112 3 -111 3 -7 -55 c-4 -30 -4 -73 0 -95 l7 -41 -96 0 -96 0 0 95 c0 87 -2 95 -19 95 -52 0 -51 -2 -51 216 l0 204 70 0 70 0 0 105 0 105 -255 0 -255 0 0 -105z"/>
 <path d="M1245 5506 c-4 -35 -4 -82 0 -105 l7 -41 113 0 113 0 4 63 c3 34 3 81 0 105 l-5 42 -113 0 -112 0 -7 -64z"/>
 <path d="M4767 4362 c-361 -362 -657 -663 -657 -669 0 -15 509 -513 537 -525 17 -9 37 -1 112 41 118 66 242 117 361 148 168 43 470 42 643 -3 83 -21 277 -105 353 -153 36 -23 69 -41 73 -41 12 0 551 548 551 560 0 30 -1273 1300 -1303 1300 -7 0 -308 -296 -670 -658z"/>
 <path d="M5318 3005 c-196 -37 -329 -107 -474 -250 -201 -197 -284 -388 -284 -650 0 -256 81 -446 270 -637 140 -140 295 -226 465 -257 82 -15 287 -13 366 3 173 37 370 159 497 309 145 170 217 363 215 582 -2 364 -230 704 -565 843 -144 60 -350 84 -490 57z"/>
 </g>

</svg>