<!DOCTYPE svg PUBLIC "-//W3C//DTD SVG 20010904//EN" "http://www.w3.org/TR/2001/REC-SVG-20010904/DTD/svg10.dtd">
<svg version="1.0" xmlns="http://www.w3.org/2000/svg" width="286px" height="345px" viewBox="0 0 2860 3450" preserveAspectRatio="xMidYMid meet">
<g id="layer1" fill="#f69320" stroke="none">
 <path d="M2306 2311 l-129 -129 50 -60 c108 -129 180 -271 225 -439 20 -76 23 -111 22 -253 -1 -145 -4 -177 -27 -265 -159 -599 -791 -930 -1377 -719 -159 57 -280 135 -397 257 -208 218 -305 478 -290 781 11 228 86 435 217 596 20 25 40 51 44 59 6 9 -29 51 -120 142 -71 71 -134 129 -140 129 -14 0 -113 -123 -172 -215 -57 -87 -134 -258 -162 -356 -47 -168 -61 -412 -35 -631 53 -445 362 -866 789 -1073 145 -70 261 -104 419 -120 167 -18 234 -19 386 -4 404 38 806 295 1043 665 102 159 172 358 193 548 37 325 -5 607 -123 842 -73 146 -241 374 -275 374 -7 0 -70 -58 -141 -129z"/>
 </g>
<g id="layer2" fill="#6b7987" stroke="none">
 <path d="M953 2992 l-453 -457 182 -182 c101 -101 188 -183 194 -183 6 0 37 16 69 35 84 50 189 91 284 110 114 23 325 16 426 -14 77 -23 200 -79 247 -112 l30 -22 189 189 c104 104 189 193 189 199 0 14 -882 895 -895 894 -6 0 -214 -206 -462 -457z"/>
 <path d="M1355 2060 c-146 -23 -250 -75 -356 -180 -127 -126 -189 -269 -189 -440 0 -175 58 -311 189 -440 90 -89 159 -131 277 -166 79 -25 237 -25 319 0 231 69 413 266 455 494 56 305 -138 618 -440 710 -78 24 -187 33 -255 22z"/>
 </g>

</svg>