<!DOCTYPE svg PUBLIC "-//W3C//DTD SVG 20010904//EN" "http://www.w3.org/TR/2001/REC-SVG-20010904/DTD/svg10.dtd">
<svg version="1.0" xmlns="http://www.w3.org/2000/svg" width="1600px" height="606px" viewBox="0 0 16000 6060" preserveAspectRatio="xMidYMid meet">
<g id="layer1" fill="#f69320" stroke="none">
 <path d="M4250 4259 c-59 -51 -430 -422 -430 -429 0 -3 14 -22 31 -41 17 -19 45 -53 62 -76 17 -24 34 -43 39 -43 4 0 8 -6 8 -14 0 -8 4 -16 8 -18 8 -3 103 -140 130 -187 57 -98 135 -275 166 -376 72 -233 78 -283 74 -588 -4 -256 -8 -290 -45 -432 -24 -88 -74 -239 -92 -273 -5 -9 -28 -55 -51 -101 -44 -89 -145 -245 -207 -321 -68 -82 -237 -245 -320 -308 -45 -34 -84 -62 -88 -62 -3 0 -27 -15 -53 -32 -70 -48 -85 -57 -107 -67 -11 -5 -51 -23 -90 -41 -38 -17 -79 -36 -90 -41 -26 -11 -226 -73 -290 -88 -211 -53 -540 -52 -787 2 -185 41 -458 151 -585 237 -24 17 -48 30 -53 30 -4 0 -10 3 -12 8 -2 4 -23 20 -46 36 -97 66 -282 251 -381 381 -17 22 -35 45 -41 52 -5 7 -10 14 -10 17 0 2 -21 37 -48 78 -236 364 -318 851 -226 1333 53 275 155 499 337 738 75 98 88 121 83 143 -4 14 -42 62 -85 107 -43 45 -89 94 -102 109 -56 62 -262 248 -275 248 -16 0 -59 -43 -111 -112 -21 -26 -41 -48 -45 -48 -4 0 -8 -7 -8 -15 0 -8 -4 -15 -8 -15 -9 0 -145 -198 -181 -263 -104 -188 -195 -398 -239 -552 -59 -205 -82 -408 -82 -720 0 -263 12 -401 52 -590 19 -91 75 -281 97 -330 5 -11 24 -56 42 -100 18 -44 36 -84 40 -90 4 -5 28 -50 54 -100 107 -204 245 -387 439 -581 194 -194 383 -337 582 -440 49 -25 94 -49 99 -53 15 -12 222 -96 280 -114 28 -9 78 -26 113 -37 34 -11 70 -20 80 -20 9 0 46 -6 82 -14 288 -63 856 -61 1125 4 84 21 188 51 223 66 18 8 39 14 46 14 7 0 35 9 62 21 27 11 58 24 69 29 42 17 252 123 280 141 17 10 37 22 45 26 24 11 159 102 230 155 168 127 357 314 492 489 60 78 198 282 198 293 0 3 13 27 28 53 15 26 43 84 61 128 19 44 40 95 48 113 20 46 83 244 83 261 0 8 6 37 14 65 34 120 66 425 66 637 0 278 -58 653 -126 817 -8 18 -14 37 -14 43 0 5 -9 29 -20 51 -11 23 -20 45 -20 50 0 11 -96 205 -123 249 -12 19 -35 57 -52 85 -16 27 -33 51 -37 52 -4 2 -8 8 -8 13 0 5 -16 33 -37 62 -133 190 -254 327 -289 327 -11 0 -35 -14 -54 -31z"/>
 <path d="M7090 4100 c0 -37 -3 -41 -30 -46 -27 -6 -30 -10 -30 -44 0 -21 -4 -40 -9 -42 -15 -5 -17 -261 -3 -266 7 -2 12 -23 12 -48 0 -42 1 -44 30 -44 28 0 30 -2 30 -40 l0 -40 110 0 110 0 0 40 c0 39 1 40 36 40 l35 0 -3 48 -3 47 -52 3 -53 3 0 -40 0 -41 -65 0 -65 0 0 40 c0 22 -4 40 -10 40 -6 0 -10 48 -10 125 0 77 4 125 10 125 6 0 10 18 10 40 l0 40 65 0 65 0 0 -74 c0 -74 0 -75 -27 -78 -26 -3 -28 -7 -31 -50 l-3 -48 85 0 86 0 0 129 0 130 -32 3 c-31 3 -33 6 -36 46 l-3 42 -110 0 -109 0 0 -40z"/>
 <path d="M7440 4090 c0 -47 2 -50 25 -50 l25 0 0 -120 0 -120 -25 0 c-23 0 -25 -3 -25 -50 l0 -50 64 0 65 0 4 48 3 47 2 -47 2 -48 95 0 95 0 0 45 c0 25 5 45 10 45 6 0 10 20 10 45 l0 45 -50 0 -50 0 0 -40 c0 -38 -2 -40 -30 -40 -28 0 -30 2 -30 40 0 29 -4 40 -15 40 -12 0 -15 15 -15 79 0 79 0 80 28 83 25 3 27 7 30 51 l3 47 -110 0 -111 0 0 -50z"/>
 <path d="M7950 4095 c0 -43 -1 -45 -30 -45 -28 0 -30 -2 -30 -40 0 -29 -4 -40 -15 -40 -11 0 -15 -12 -15 -50 0 -38 4 -50 15 -50 11 0 15 -11 15 -40 0 -38 2 -40 30 -40 29 0 30 -2 30 -45 l0 -45 94 0 95 0 3 43 c3 38 6 42 31 45 24 3 27 7 27 43 0 28 4 39 15 39 11 0 15 12 15 45 0 31 -5 47 -15 51 -10 4 -15 20 -15 45 0 37 -2 39 -30 39 -29 0 -30 2 -30 45 l0 45 -95 0 -95 0 0 -45z m140 -95 c0 -29 4 -40 15 -40 10 0 15 -10 15 -34 0 -21 -6 -36 -15 -40 -10 -3 -15 -19 -15 -46 l0 -40 -45 0 -45 0 0 40 c0 27 -5 43 -15 46 -9 4 -15 19 -15 40 0 24 5 34 15 34 11 0 15 11 15 40 l0 40 45 0 45 0 0 -40z"/>
 <path d="M8340 4095 c0 -25 -4 -45 -10 -45 -6 0 -10 -35 -10 -85 0 -69 -3 -85 -15 -85 -12 0 -15 -17 -15 -90 l0 -90 55 0 55 0 0 85 c0 69 3 85 15 85 12 0 15 -16 15 -85 l0 -85 40 0 40 0 0 85 c0 47 4 85 9 85 6 0 12 19 14 43 2 23 4 -15 5 -85 l2 -128 55 0 55 0 0 90 c0 73 -3 90 -15 90 -12 0 -15 16 -15 84 0 65 -3 85 -15 90 -10 3 -15 19 -15 46 0 39 -1 40 -35 40 -34 0 -35 -1 -35 -40 0 -27 -5 -43 -15 -46 -10 -4 -15 -20 -15 -45 0 -32 -3 -39 -20 -39 -17 0 -20 7 -20 40 0 29 -4 40 -15 40 -11 0 -15 12 -15 45 l0 45 -40 0 -40 0 0 -45z"/>
 <path d="M8860 4095 c0 -33 -4 -45 -15 -45 -13 0 -15 -21 -15 -125 l0 -125 -40 0 -40 0 0 -50 0 -50 40 0 40 0 0 -85 0 -85 55 0 55 0 0 85 0 85 55 0 55 0 0 50 0 50 -55 0 -55 0 0 120 0 120 55 0 55 0 0 50 0 50 -95 0 -95 0 0 -45z"/>
 <path d="M9140 3835 l0 -305 55 0 55 0 2 128 c1 70 3 108 5 85 l4 -43 94 0 94 0 3 43 c2 34 7 43 25 45 12 2 23 9 25 15 2 7 2 85 0 175 l-4 162 -54 0 -54 0 0 -170 0 -170 -60 0 -60 0 0 45 c0 25 -4 45 -10 45 -6 0 -10 48 -10 125 l0 125 -55 0 -55 0 0 -305z"/>
 <path d="M10060 4095 c0 -33 -4 -45 -15 -45 -11 0 -15 -12 -15 -45 0 -33 4 -45 15 -45 11 0 15 -12 15 -45 l0 -45 80 0 80 0 0 -35 0 -35 -65 0 -65 0 0 -50 0 -50 94 0 95 0 3 43 c2 35 7 43 26 45 25 4 25 1 22 150 -1 87 1 102 14 102 12 0 16 11 16 49 l0 50 -150 0 -150 1 0 -45z m160 -90 c0 -35 0 -35 -45 -35 -45 0 -45 0 -45 35 0 35 0 35 45 35 45 0 45 0 45 -35z"/>
 <path d="M10420 3920 l0 -220 54 0 55 0 4 48 3 47 2 -47 2 -48 94 0 95 0 3 43 c2 34 7 43 25 45 12 2 23 9 25 15 2 7 2 85 0 175 l-4 162 -54 0 -54 0 0 -170 0 -170 -60 0 -60 0 0 45 c0 25 -4 45 -10 45 -6 0 -10 48 -10 125 l0 125 -55 0 -55 0 0 -220z"/>
 <path d="M10940 4095 c0 -43 -1 -45 -30 -45 -28 0 -30 -2 -30 -40 0 -29 -4 -40 -15 -40 -11 0 -15 -12 -15 -50 0 -38 4 -50 15 -50 11 0 15 -11 15 -40 0 -38 2 -40 30 -40 29 0 30 -2 30 -45 l0 -45 79 0 80 0 4 48 c2 26 4 -13 5 -85 l2 -133 50 0 50 0 0 305 0 305 -49 0 -50 0 -4 -47 -3 -48 -2 48 -2 47 -80 0 -80 0 0 -45z m140 -95 c0 -29 4 -40 15 -40 10 0 15 -11 15 -35 0 -24 -5 -35 -15 -35 -11 0 -15 -12 -15 -45 l0 -45 -45 0 -45 0 0 40 c0 22 -6 42 -14 47 -7 4 -15 23 -18 41 -4 26 -1 32 14 32 14 0 18 8 18 40 l0 40 45 0 45 0 0 -40z"/>
 <path d="M11778 4098 c-2 -36 -7 -44 -25 -46 -19 -3 -23 -10 -23 -43 0 -28 -4 -39 -15 -39 -11 0 -15 -12 -15 -50 0 -38 4 -50 15 -50 11 0 15 -12 15 -45 0 -41 2 -45 24 -45 21 0 25 -5 28 -37 l3 -38 113 -3 112 -3 0 41 c0 38 2 40 31 40 30 0 30 1 27 48 l-3 47 -52 3 -53 3 0 -40 0 -41 -60 0 -60 0 0 40 c0 29 -4 40 -15 40 -11 0 -15 11 -15 40 0 29 4 40 15 40 11 0 15 11 15 40 l0 40 60 0 60 0 0 -40 0 -40 55 0 55 0 0 45 c0 43 -1 45 -30 45 -29 0 -30 2 -30 45 l0 45 -114 0 -115 0 -3 -42z"/>
 <path d="M12210 4095 c0 -41 -2 -45 -25 -45 -22 0 -25 -4 -25 -40 0 -29 -4 -40 -15 -40 -11 0 -15 -12 -15 -50 0 -38 4 -50 15 -50 11 0 15 -11 15 -40 0 -36 3 -40 25 -40 23 0 25 -4 25 -45 l0 -45 94 0 95 0 3 43 c3 38 6 42 31 45 24 3 27 7 27 43 0 28 4 39 15 39 11 0 15 12 15 50 0 38 -4 50 -15 50 -11 0 -15 11 -15 40 0 38 -2 40 -30 40 -29 0 -30 2 -30 45 l0 45 -95 0 -95 0 0 -45z m150 -95 c0 -29 4 -40 15 -40 10 0 15 -11 15 -35 0 -24 -5 -35 -15 -35 -11 0 -15 -12 -15 -45 l0 -45 -50 0 -50 0 0 45 c0 33 -4 45 -15 45 -10 0 -15 11 -15 35 0 24 5 35 15 35 11 0 15 11 15 40 l0 40 50 0 50 0 0 -40z"/>
 <path d="M12550 3920 l0 -220 54 0 55 0 4 43 4 42 1 -42 2 -43 94 0 95 0 3 43 c2 34 7 43 25 45 12 2 23 9 25 15 2 7 2 85 0 175 l-4 162 -49 0 -49 0 0 -170 0 -170 -65 0 -65 0 0 45 c0 25 -4 45 -10 45 -6 0 -10 48 -10 125 l0 125 -55 0 -55 0 0 -220z"/>
 <path d="M13130 4099 c0 -32 -4 -42 -20 -46 -19 -5 -20 -14 -20 -129 l0 -124 -40 0 -40 0 0 -50 0 -50 40 0 40 0 0 -85 0 -85 55 0 55 0 0 85 0 85 60 0 60 0 0 50 0 50 -60 0 -60 0 0 120 0 120 60 0 60 0 0 50 0 50 -95 0 -95 0 0 -41z"/>
 <path d="M13410 4090 c0 -47 2 -50 25 -50 l25 0 0 -120 0 -120 -25 0 c-23 0 -25 -3 -25 -50 l0 -50 64 0 65 0 4 48 3 47 2 -47 2 -48 95 0 95 0 0 45 c0 25 5 45 10 45 6 0 10 20 10 45 l0 45 -50 0 -50 0 0 -40 c0 -38 -2 -40 -30 -40 -28 0 -30 2 -30 40 0 29 -4 40 -15 40 -12 0 -15 15 -15 79 0 79 0 80 28 83 25 3 27 7 30 51 l3 47 -110 0 -111 0 0 -50z"/>
 <path d="M13920 4095 c0 -43 -1 -45 -30 -45 -28 0 -30 -2 -30 -40 0 -29 -4 -40 -15 -40 -11 0 -15 -12 -15 -50 0 -38 4 -50 15 -50 11 0 15 -11 15 -40 0 -38 2 -40 30 -40 29 0 30 -2 30 -45 l0 -45 94 0 95 0 3 43 c3 38 6 42 31 45 24 3 27 7 27 43 0 28 4 39 15 39 11 0 15 12 15 45 0 31 -5 47 -15 51 -10 4 -15 20 -15 45 0 37 -2 39 -30 39 -29 0 -30 2 -30 45 l0 45 -95 0 -95 0 0 -45z m140 -95 c0 -29 4 -40 15 -40 10 0 15 -10 15 -34 0 -21 -6 -36 -15 -40 -10 -3 -15 -19 -15 -46 l0 -40 -45 0 -45 0 0 40 c0 27 -5 43 -15 46 -9 4 -15 19 -15 40 0 24 5 34 15 34 11 0 15 11 15 40 l0 40 45 0 45 0 0 -40z"/>
 <path d="M14312 4093 l3 -48 43 -3 42 -3 0 -204 0 -204 -27 -3 c-26 -3 -28 -7 -31 -50 l-3 -48 85 0 86 0 0 255 0 255 40 0 40 0 0 50 0 50 -141 0 -140 0 3 -47z"/>
 </g>
<g id="layer2" fill="#6b7987" stroke="none">
 <path d="M1684 5277 c-428 -431 -788 -794 -798 -806 l-20 -22 294 -290 c161 -159 312 -306 336 -326 l44 -35 42 21 c24 12 50 26 58 31 35 23 199 108 216 113 11 3 44 15 74 27 76 29 137 46 259 71 93 19 128 21 320 16 249 -6 358 -22 479 -73 18 -8 37 -14 43 -14 17 0 252 -118 307 -155 30 -19 56 -35 59 -35 9 0 628 625 651 658 l22 29 -28 36 c-26 34 -1429 1438 -1504 1505 -20 17 -45 32 -55 32 -12 0 -314 -296 -799 -783z"/>
 <path d="M2325 3616 c-60 -14 -132 -31 -159 -40 -67 -22 -207 -91 -233 -115 -12 -12 -26 -21 -30 -21 -24 -1 -273 -247 -273 -270 0 -6 -4 -10 -8 -10 -5 0 -14 -10 -21 -22 -6 -13 -20 -36 -31 -53 -41 -63 -92 -177 -114 -255 -70 -251 -46 -544 62 -770 99 -207 362 -464 552 -540 30 -12 64 -26 75 -31 11 -5 52 -19 90 -31 64 -21 89 -23 295 -22 189 0 231 3 264 17 21 9 45 17 53 17 27 0 207 92 293 150 78 53 146 113 210 186 42 48 96 118 104 134 3 8 15 29 25 45 77 119 125 269 142 440 9 101 9 137 -5 230 -17 117 -37 200 -61 252 -8 17 -15 34 -15 38 0 3 -13 33 -30 66 -128 259 -367 470 -640 564 -75 26 -236 55 -338 60 -78 4 -118 0 -207 -19z"/>
 <path d="M5822 3123 l3 -98 93 -3 92 -3 0 -89 c0 -50 1 -220 1 -380 0 -159 -1 -328 -1 -375 l0 -85 -59 0 c-69 0 -71 -3 -71 -112 0 -105 -12 -98 181 -98 l169 0 0 570 0 570 94 0 93 0 6 57 c3 32 3 77 0 100 l-6 43 -299 0 -299 0 3 -97z"/>
 <path d="M6774 3207 c-3 -8 -4 -49 -2 -93 l3 -79 93 -3 92 -3 1 -89 c0 -50 0 -137 0 -195 0 -58 0 -143 0 -190 l-1 -85 -59 0 c-58 0 -59 -1 -65 -31 -8 -40 -8 -127 0 -156 6 -23 9 -23 170 -23 149 0 164 2 173 19 6 11 10 130 10 297 -1 154 0 318 0 367 l1 87 95 0 96 0 -3 93 -3 92 -298 3 c-243 2 -298 0 -303 -11z"/>
 <path d="M7726 3198 c-8 -30 -8 -97 0 -137 5 -25 13 -33 35 -38 l29 -5 0 -279 0 -279 -65 0 -66 0 3 -97 3 -98 64 -3 63 -3 -5 -36 c-4 -20 -4 -63 0 -95 6 -56 7 -58 34 -58 l29 0 0 -95 0 -95 235 0 236 0 -3 93 -3 92 -152 3 -153 3 0 94 0 94 153 3 152 3 0 95 0 95 -152 3 -153 3 -1 92 c0 50 0 139 0 197 0 58 1 141 1 186 l0 81 57 6 c31 3 60 12 64 19 10 16 11 69 3 132 l-7 46 -197 0 c-197 0 -198 0 -204 -22z"/>
 <path d="M8750 3130 l0 -89 -32 -5 c-18 -3 -46 -7 -63 -8 l-30 -3 0 -93 0 -92 -32 0 -33 0 0 -94 c0 -98 4 -106 48 -106 15 0 17 -13 17 -92 l0 -93 62 -3 62 -3 3 -92 3 -92 235 0 235 0 0 93 0 92 58 0 c50 0 59 3 66 23 5 12 8 99 7 192 l-1 170 -255 3 -255 2 3 90 3 90 137 0 c75 0 174 3 220 7 l82 6 0 93 0 94 -270 0 -270 0 0 -90z m380 -575 l0 -85 -140 0 -140 0 0 85 0 85 140 0 140 0 0 -85z"/>
 <path d="M9692 3123 l3 -98 58 -3 57 -3 0 -87 c1 -48 2 -261 3 -474 l2 -388 -62 0 -63 0 0 -95 0 -95 235 0 235 0 0 95 0 95 -65 0 -65 0 0 475 0 475 34 0 c18 0 48 3 65 6 l31 7 0 93 0 94 -235 0 -236 0 3 -97z"/>
 <path d="M10453 2743 l2 -478 105 0 105 0 3 90 c3 80 10 104 32 105 3 0 5 -44 5 -97 l0 -98 203 -3 202 -2 0 94 c0 106 0 106 88 106 l42 0 0 380 0 380 -110 0 -110 0 0 -287 c1 -159 1 -327 0 -375 l0 -88 -145 0 -145 0 0 90 0 91 -30 6 -30 6 0 278 0 279 -110 0 -109 0 2 -477z"/>
 <path d="M11720 3130 l0 -90 -30 0 -30 0 0 -99 0 -100 -32 -3 -33 -3 -3 -92 -3 -93 -29 0 -30 0 0 -95 0 -95 -30 0 -30 0 0 -100 0 -101 108 3 107 3 0 93 0 92 33 0 33 0 -3 95 -3 94 35 3 35 3 1 95 c0 80 3 95 17 98 15 3 17 -8 17 -97 l0 -101 30 0 29 0 3 -92 3 -93 33 -3 32 -3 0 -95 0 -95 108 3 107 3 3 65 c2 36 0 80 -3 98 -5 27 -10 32 -34 32 -27 0 -27 0 -23 60 2 32 1 75 -2 95 -6 31 -11 35 -36 35 l-30 0 0 95 0 95 -30 0 -30 0 0 95 0 94 -35 7 -35 6 0 89 0 89 -110 0 -110 0 0 -90z"/>
 <path d="M12490 3131 l0 -90 -27 -3 c-35 -4 -47 -49 -38 -135 7 -63 7 -63 38 -63 l32 0 -3 -95 -3 -95 193 0 193 0 -3 -90 -3 -90 -155 0 c-179 0 -167 9 -162 -125 l3 -80 205 0 205 0 0 90 c0 102 1 103 77 104 l48 1 2 282 3 283 30 5 30 5 3 93 3 92 -110 0 c-128 0 -125 3 -119 -114 3 -58 1 -66 -14 -66 -16 0 -18 11 -18 90 l0 90 -205 0 -205 0 0 -89z m382 -191 l-3 -90 -110 0 -109 0 0 90 0 90 113 0 112 0 -3 -90z"/>
 <path d="M13510 3130 l0 -89 -32 -5 c-18 -3 -46 -7 -63 -8 l-30 -3 0 -93 0 -92 -33 0 -33 0 3 -97 3 -98 27 -3 c27 -3 27 -3 30 -95 l3 -92 63 -3 62 -3 0 -95 0 -94 173 2 172 3 0 93 c0 85 1 92 20 92 20 0 20 -7 20 -282 l0 -283 107 -3 c105 -3 108 -2 112 20 3 13 4 313 3 668 l-2 645 -110 0 -110 0 -5 -89 c-3 -59 -9 -91 -17 -94 -10 -3 -13 20 -13 92 l0 96 -175 0 -175 0 0 -90z m320 -200 l0 -90 30 -6 30 -6 0 -89 0 -89 -30 0 -30 0 0 -95 0 -95 -115 0 -115 0 0 95 0 95 -30 0 -30 0 0 89 0 90 28 3 27 3 3 93 3 92 114 0 115 0 0 -90z"/>
 <path d="M14470 3131 c0 -100 -1 -101 -87 -101 l-43 0 0 -95 0 -95 -29 0 c-28 0 -30 -3 -37 -46 -6 -44 0 -126 12 -145 3 -5 16 -9 30 -9 24 0 24 -1 24 -95 l0 -95 65 0 65 0 0 -95 0 -95 233 2 232 3 0 93 0 92 62 0 62 0 5 43 c3 23 4 110 3 192 l-2 150 -252 3 -253 2 0 90 0 90 143 0 c78 0 179 3 225 7 l83 6 -3 91 -3 91 -267 3 -268 2 0 -89z m376 -576 l-1 -85 -142 0 -143 0 0 85 0 85 143 0 143 0 0 -85z"/>
 <path d="M15212 3123 l3 -98 63 -3 62 -3 0 -89 c1 -50 1 -135 1 -190 0 -55 0 -138 -1 -185 l0 -85 -60 0 c-71 0 -73 -3 -68 -125 l3 -80 137 -3 137 -3 3 98 c3 89 5 98 23 101 19 3 20 -3 20 -95 l0 -98 202 -3 202 -2 3 97 3 98 28 3 27 3 0 95 0 95 -107 -3 -108 -3 -3 -87 -3 -88 -79 0 -80 0 0 90 0 90 -29 0 -30 0 -3 93 c-2 50 -1 133 0 183 l4 92 55 4 c32 3 59 11 64 19 10 16 12 122 3 157 l-6 22 -235 0 -234 0 3 -97z"/>
 <path d="M6965 2069 c-3 -13 -5 -60 -3 -104 l3 -80 104 -3 c77 -2 107 1 113 10 11 18 10 160 -2 178 -6 10 -35 15 -109 18 -98 4 -100 4 -106 -19z"/>
 </g>

</svg>